<svg width="163" height="164" viewBox="0 0 163 164" fill="none" xmlns="http://www.w3.org/2000/svg">
  <path d="M38.7865 109.526C22.9906 109.617 11.622 96.8382 11.5317 80.9881C11.4052 61.577 35.7143 41.7323 38.2987 32.3338C40.6303 41.389 65.3187 62.7152 65.4271 80.6448C65.5175 96.513 54.5825 109.435 38.7865 109.526ZM37.9013 11.0429C33.0033 27.4901 -0.144064 57.1307 0.000471252 83.1389C0.127843 104.375 17.3881 121.473 38.5517 121.346C59.7333 121.22 76.7777 103.923 76.6512 82.6873C76.5238 58.6673 41.0278 23.1522 37.9013 11.0429Z" fill="#72ACBF"/>
  <path fill-rule="evenodd" clip-rule="evenodd" d="M93.8355 108.863C89.0108 108.381 75.475 106.495 75.475 106.495C75.475 106.495 81.401 105.762 90.1517 100.195C98.9024 94.6284 113.081 82.0475 109.72 74.2715C106.36 66.4946 77.428 71.7738 69.7939 76.8397C62.1588 81.9048 61.1109 98.8904 61.8191 109.569C62.6041 121.455 67.7722 132.197 75.8653 139.867C83.6142 147.218 94.1065 151.757 106.025 151.757C112.398 151.757 116.501 164 106.025 164C90.6079 164 77.0224 158.111 66.9682 148.57C56.6926 138.833 50.137 125.271 49.1488 110.329C48.2554 96.8507 51.2337 82.7738 59.5824 71.3745C66.5247 61.8957 110.655 52.556 120.928 68.2001C128.152 79.2011 103.891 101.987 103.891 101.987L128.725 121.091L142.558 131.735C146.664 124.67 149.696 117.668 150.232 109.569C151.699 87.4125 133.884 64.2859 118.903 44.8378C114.158 38.677 109.672 32.8558 106.025 27.3833C102.379 32.8558 97.8943 38.677 93.1463 44.8378C91.1282 47.4584 89.0586 50.1431 86.9972 52.8812H71.4416C84.7912 34.2731 95.9828 21.498 106.025 0.000183105C122.856 36.0383 165.41 72.5615 162.904 110.329C161.938 124.879 155.489 138.882 144.576 149.044C127.013 135.327 101.059 109.586 93.8355 108.863Z" fill="#00374B"/>
  <path d="M37.9075 11.045C33.0096 27.4922 -0.136923 57.1328 0.00761238 83.1401C0.097947 99.2432 10.0384 112.961 24.0637 118.582L18.1893 105.353L19.7259 101.683C14.6292 96.4961 11.593 89.1591 11.5388 80.9893C11.4115 61.5782 35.7214 41.7335 38.305 32.335C40.6365 41.3902 65.3259 62.7173 65.4334 80.646C65.4514 83.9902 64.9817 87.207 64.0784 90.189C63.8073 91.0562 63.5183 91.9053 63.1569 92.7373L66.8254 102.154L67.1145 108.28C73.1154 101.466 76.7117 92.5015 76.6575 82.6885C76.531 58.6685 41.034 23.1543 37.9075 11.045Z" fill="#72ACBF"/>
</svg>