<svg width="70" height="70" viewBox="0 0 70 70" fill="none" xmlns="http://www.w3.org/2000/svg">
<g id="Group 117">
<circle id="Ellipse 12" cx="35" cy="35" r="35" fill="#00374B"/>
<path id="Vector" d="M35.348 44.3064L35.2047 44.4492L35.0471 44.3064C28.2415 38.1529 23.7427 34.0839 23.7427 29.9577C23.7427 27.1023 25.8918 24.9607 28.7573 24.9607C30.9637 24.9607 33.1129 26.3884 33.8722 28.3301H36.5371C37.2965 26.3884 39.4456 24.9607 41.6521 24.9607C44.5175 24.9607 46.6667 27.1023 46.6667 29.9577C46.6667 34.0839 42.1678 38.1529 35.348 44.3064ZM41.6521 22.1052C39.1591 22.1052 36.7664 23.2617 35.2047 25.0749C33.643 23.2617 31.2503 22.1052 28.7573 22.1052C24.3444 22.1052 20.8772 25.5461 20.8772 29.9577C20.8772 35.3403 25.7485 39.752 33.1272 46.4195L35.2047 48.3041L37.2822 46.4195C44.6608 39.752 49.5322 35.3403 49.5322 29.9577C49.5322 25.5461 46.0649 22.1052 41.6521 22.1052Z" fill="white"/>
</g>
</svg>
