<svg width="70" height="70" viewBox="0 0 70 70" fill="none" xmlns="http://www.w3.org/2000/svg">
<circle cx="35" cy="35" r="35" fill="#00374B"/>
<path fill-rule="evenodd" clip-rule="evenodd" d="M36.2388 18.624L35 19.5747L33.7613 18.624C34.0566 18.238 34.5145 18.0117 35 18.0117C35.4856 18.0117 35.9434 18.238 36.2388 18.624ZM35 22.2008C34.8627 22.3904 34.7163 22.5938 34.5621 22.8096C33.5493 24.2265 32.2016 26.1742 30.8567 28.3038C29.5083 30.4387 28.1807 32.7281 27.1954 34.8331C26.1826 36.9968 25.636 38.7528 25.636 39.8937C25.636 45.073 29.8284 49.2717 35 49.2717C40.1717 49.2717 44.3641 45.073 44.3641 39.8937C44.3641 38.7528 43.8174 36.9968 42.8046 34.8331C41.8194 32.7281 40.4918 30.4387 39.1434 28.3038C37.7984 26.1742 36.4508 24.2265 35.438 22.8096C35.2837 22.5938 35.1373 22.3904 35 22.2008ZM35 19.5747C33.7613 18.624 33.7615 18.6237 33.7613 18.624L33.7518 18.6364L33.7268 18.6692C33.7051 18.6978 33.6733 18.7397 33.6322 18.7942C33.55 18.9032 33.4302 19.0626 33.2784 19.2671C32.9748 19.6759 32.5423 20.2649 32.024 20.99C30.9884 22.4388 29.6049 24.4379 28.2187 26.6327C26.8359 28.8222 25.4323 31.2349 24.3692 33.5063C23.3336 35.7188 22.5146 38.0133 22.5146 39.8937C22.5146 46.7995 28.1045 52.3977 35 52.3977C41.8955 52.3977 47.4854 46.7995 47.4854 39.8937C47.4854 38.0133 46.6665 35.7188 45.6309 33.5063C44.5677 31.2349 43.1642 28.8222 41.7814 26.6327C40.3952 24.4379 39.0116 22.4388 37.976 20.99C37.4577 20.2649 37.0253 19.6759 36.7217 19.2671C36.5698 19.0626 36.4501 18.9032 36.3678 18.7942C36.3267 18.7397 36.2949 18.6978 36.2732 18.6692L36.2482 18.6364L36.2388 18.624C36.2386 18.6237 36.2388 18.624 35 19.5747Z" fill="white"/>
<path fill-rule="evenodd" clip-rule="evenodd" d="M35 33.5673C35.8761 33.5673 36.5863 34.2775 36.5863 35.1535V38.326H39.7588C40.6348 38.326 41.345 39.0362 41.345 39.9123C41.345 40.7884 40.6348 41.4985 39.7588 41.4985H36.5863V44.6711C36.5863 45.5471 35.8761 46.2573 35 46.2573C34.1239 46.2573 33.4137 45.5471 33.4137 44.6711V41.4985H30.2412C29.3652 41.4985 28.655 40.7884 28.655 39.9123C28.655 39.0362 29.3652 38.326 30.2412 38.326H33.4137V35.1535C33.4137 34.2775 34.1239 33.5673 35 33.5673Z" fill="white"/>
</svg>
