<svg width="16" height="21" viewBox="0 0 16 21" fill="none" xmlns="http://www.w3.org/2000/svg">
  <path d="M10.6793 13.6909L10.1257 14.0162C10.1257 14.0162 8.80878 14.7884 6.67909 11.2068C4.54939 7.62512 5.86635 6.85292 5.86635 6.85292L6.21459 6.64721C7.07422 6.14352 7.42018 5.0678 7.02796 4.11604L6.22708 2.17216C5.74134 0.993963 4.34651 0.49568 3.28232 1.1202L1.37312 2.23978C0.846134 2.55026 0.426239 3.0184 0.305643 3.62756C-0.00264608 5.18693 -0.157748 8.67119 2.72772 13.5253C5.78871 18.6724 9.60615 19.8281 11.2216 20.0868C11.7333 20.1689 12.2325 20.0268 12.6718 19.7681L14.3989 18.7545C15.566 18.0707 15.712 16.42 14.6889 15.4681L13.0981 13.9859C12.4264 13.3619 11.4454 13.2416 10.6793 13.6909Z" fill="#00374B"/>
</svg>