<svg width="27" height="27" viewBox="0 0 27 27" fill="none" xmlns="http://www.w3.org/2000/svg">
  <path d="M5.625 23.625C4.6875 23.625 3.89062 23.2969 3.23438 22.6406C2.57813 21.9844 2.25 21.1875 2.25 20.25V12.375C2.25 11.4375 2.57813 10.6406 3.23438 9.98438C3.89062 9.32812 4.6875 9 5.625 9C6.13125 9 6.5955 9.10312 7.01775 9.30937C7.44 9.51562 7.81012 9.7875 8.12812 10.125H9V4.5H20.25V10.125H21.375C22.3125 10.125 23.1094 10.4531 23.7656 11.1094C24.4219 11.7656 24.75 12.5625 24.75 13.5V22.5H8.12812C7.80937 22.8375 7.43925 23.1094 7.01775 23.3156C6.59625 23.5219 6.132 23.625 5.625 23.625ZM5.625 21.375C5.94375 21.375 6.21112 21.267 6.42712 21.051C6.64312 20.835 6.75075 20.568 6.75 20.25V12.375C6.75 12.0563 6.642 11.7892 6.426 11.574C6.21 11.3588 5.943 11.2508 5.625 11.25C5.30625 11.25 5.03925 11.358 4.824 11.574C4.60875 11.79 4.50075 12.057 4.5 12.375V20.25C4.5 20.5688 4.608 20.8361 4.824 21.0521C5.04 21.2681 5.307 21.3757 5.625 21.375ZM11.25 10.125H18V6.75H11.25V10.125ZM9 20.25H22.5V13.5C22.5 13.1812 22.392 12.9143 22.176 12.699C21.96 12.4838 21.693 12.3758 21.375 12.375H9V20.25ZM16.875 15.75C17.1938 15.75 17.4611 15.642 17.6771 15.426C17.8931 15.21 18.0007 14.943 18 14.625C18 14.3062 17.892 14.0393 17.676 13.824C17.46 13.6088 17.193 13.5007 16.875 13.5C16.5562 13.5 16.2893 13.608 16.074 13.824C15.8588 14.04 15.7507 14.307 15.75 14.625C15.75 14.9438 15.858 15.2111 16.074 15.4271C16.29 15.6431 16.557 15.7507 16.875 15.75ZM20.25 15.75C20.5688 15.75 20.8361 15.642 21.0521 15.426C21.2681 15.21 21.3757 14.943 21.375 14.625C21.375 14.3062 21.267 14.0393 21.051 13.824C20.835 13.6088 20.568 13.5007 20.25 13.5C19.9312 13.5 19.6642 13.608 19.449 13.824C19.2337 14.04 19.1257 14.307 19.125 14.625C19.125 14.9438 19.233 15.2111 19.449 15.4271C19.665 15.6431 19.932 15.7507 20.25 15.75ZM16.875 19.125C17.1938 19.125 17.4611 19.017 17.6771 18.801C17.8931 18.585 18.0007 18.318 18 18C18 17.6812 17.892 17.4143 17.676 17.199C17.46 16.9838 17.193 16.8757 16.875 16.875C16.5562 16.875 16.2893 16.983 16.074 17.199C15.8588 17.415 15.7507 17.682 15.75 18C15.75 18.3188 15.858 18.5861 16.074 18.8021C16.29 19.0181 16.557 19.1257 16.875 19.125ZM20.25 19.125C20.5688 19.125 20.8361 19.017 21.0521 18.801C21.2681 18.585 21.3757 18.318 21.375 18C21.375 17.6812 21.267 17.4143 21.051 17.199C20.835 16.9838 20.568 16.8757 20.25 16.875C19.9312 16.875 19.6642 16.983 19.449 17.199C19.2337 17.415 19.1257 17.682 19.125 18C19.125 18.3188 19.233 18.5861 19.449 18.8021C19.665 19.0181 19.932 19.1257 20.25 19.125ZM10.125 19.125H14.625V13.5H10.125V19.125Z" fill="#00374B"/>
</svg>