<svg width="70" height="70" viewBox="0 0 70 70" fill="none" xmlns="http://www.w3.org/2000/svg">
<g id="Group 116">
<circle id="Ellipse 11" cx="35" cy="35" r="35" fill="#00374B"/>
<path id="Icon (Stroke)" fill-rule="evenodd" clip-rule="evenodd" d="M31.1156 19.2398C31.9826 19.2366 32.7507 19.7958 33.0105 20.6194L39.4506 41.0327L40.9594 33.9342C41.1529 33.0236 41.9602 32.3721 42.895 32.3721H50.8284C51.9212 32.3721 52.807 33.2541 52.807 34.3421C52.807 35.4302 51.9212 36.3122 50.8284 36.3122H44.4987L41.7597 49.1981C41.5735 50.0742 40.8172 50.7151 39.9188 50.7579C39.0204 50.8008 38.206 50.235 37.9364 49.3806L31.1473 27.861L28.9777 34.9187C28.7231 35.7467 27.9554 36.3122 27.0858 36.3122H19.1715C18.0788 36.3122 17.193 35.4302 17.193 34.3421C17.193 33.2541 18.0788 32.3721 19.1715 32.3721H25.6222L29.231 20.6332C29.4847 19.8077 30.2487 19.2429 31.1156 19.2398Z" fill="white"/>
</g>
</svg>
