<svg width="21" height="21" viewBox="0 0 21 21" fill="none" xmlns="http://www.w3.org/2000/svg">
  <path d="M17.8279 0.5C18.4173 0.5 18.9825 0.734126 19.3993 1.15087C19.816 1.56762 20.0502 2.13285 20.0502 2.72222V18.2778C20.0502 18.8671 19.816 19.4324 19.3993 19.8491C18.9825 20.2659 18.4173 20.5 17.8279 20.5H2.27239C1.68302 20.5 1.11779 20.2659 0.701045 19.8491C0.284297 19.4324 0.0501709 18.8671 0.0501709 18.2778V2.72222C0.0501709 2.13285 0.284297 1.56762 0.701045 1.15087C1.11779 0.734126 1.68302 0.5 2.27239 0.5H17.8279ZM17.2724 17.7222V11.8333C17.2724 10.8727 16.8908 9.95133 16.2115 9.27204C15.5322 8.59274 14.6108 8.21111 13.6502 8.21111C12.7057 8.21111 11.6057 8.78889 11.0724 9.65556V8.42222H7.97239V17.7222H11.0724V12.2444C11.0724 11.3889 11.7613 10.6889 12.6168 10.6889C13.0294 10.6889 13.4251 10.8528 13.7168 11.1445C14.0085 11.4362 14.1724 11.8319 14.1724 12.2444V17.7222H17.2724ZM4.36128 6.67778C4.85635 6.67778 5.33115 6.48111 5.68122 6.13104C6.03128 5.78098 6.22795 5.30618 6.22795 4.81111C6.22795 3.77778 5.39462 2.93333 4.36128 2.93333C3.86326 2.93333 3.38564 3.13117 3.03349 3.48332C2.68134 3.83547 2.4835 4.31309 2.4835 4.81111C2.4835 5.84444 3.32795 6.67778 4.36128 6.67778ZM5.90573 17.7222V8.42222H2.82795V17.7222H5.90573Z" fill="white"/>
</svg>