<svg width="237" height="66" viewBox="0 0 237 66" fill="none" xmlns="http://www.w3.org/2000/svg">
  <path d="M15.2942 43.9099C9.06541 43.9457 4.58268 38.8805 4.54705 32.599C4.49716 24.9056 14.0826 17.0403 15.1018 13.3153C16.0211 16.9042 25.7562 25.3569 25.799 32.4629C25.8346 38.7523 21.523 43.8741 15.2942 43.9099ZM14.945 4.87694C13.0136 11.3956 -0.056828 23.1434 0.000185963 33.4514C0.0500732 41.8683 6.85612 48.6448 15.2015 48.5947C23.5541 48.5446 30.2746 41.6893 30.2247 33.2724C30.1748 23.7523 16.1779 9.67636 14.945 4.87694Z" fill="#72ACBF"/>
  <path fill-rule="evenodd" clip-rule="evenodd" d="M37.0012 43.6469C35.0983 43.4556 29.7611 42.7077 29.7611 42.7077C29.7611 42.7077 32.098 42.4183 35.548 40.2113C38.9988 38.005 44.5897 33.0193 43.2649 29.937C41.9393 26.8546 30.5308 28.947 27.5205 30.9549C24.5101 32.962 24.0975 39.6941 24.3762 43.9269C24.6855 48.6383 26.7237 52.8947 29.9151 55.9348C32.9703 58.8489 37.1081 60.6476 41.8075 60.6476C44.3211 60.6476 45.9388 65.5 41.8075 65.5C35.7283 65.5 30.3712 63.1662 26.4066 59.3847C22.355 55.5251 19.7701 50.1497 19.3803 44.2285C19.0282 38.8861 20.202 33.3066 23.4939 28.7887C26.232 25.0322 43.6326 21.3302 47.6842 27.5308C50.5327 31.8904 40.9658 40.9212 40.9658 40.9212L56.2135 52.712C57.832 49.9119 59.0278 47.1368 59.2395 43.9269C59.8182 35.1454 52.7933 25.9792 46.886 18.2715C45.0145 15.8295 43.2456 13.5222 41.8075 11.3532C40.3707 13.5222 38.6019 15.8295 36.7289 18.2715C35.9336 19.3095 35.1169 20.3739 34.3044 21.4585H28.1704C33.435 14.0838 37.8478 9.02077 41.8075 0.5C48.4439 14.7837 65.2245 29.2593 64.2361 44.2285C63.8555 49.9943 61.3119 55.5444 57.0088 59.5723C50.083 54.1361 39.849 43.9334 37.0012 43.6469Z" fill="#00374B"/>
  <path d="M14.9476 4.87744C13.0163 11.3961 -0.0541896 23.1439 0.0028244 33.4519C0.0384581 39.8345 3.95817 45.2714 9.48852 47.4992L7.17233 42.2557L7.7781 40.8008C5.76836 38.7456 4.57107 35.8373 4.54969 32.5995C4.4998 24.9061 14.0853 17.0408 15.1044 13.3158C16.0237 16.9047 25.7589 25.3574 25.8016 32.4634C25.8088 33.7886 25.6235 35.0637 25.2671 36.2456C25.1602 36.5895 25.0462 36.9262 24.9037 37.2557L26.3504 40.9878L26.4644 43.4161C28.8305 40.7155 30.2487 37.1625 30.2274 33.2729C30.1775 23.7528 16.1805 9.67687 14.9476 4.87744Z" fill="#72ACBF"/>
  <path d="M133.124 15.3978H121.528V19.107H129.8V24.9752H121.528V29.6615H133.611V35.9774H114.556V9.08194H133.124V15.3978Z" fill="#0394A8"/>
  <path d="M159.203 18.5468L156.85 24.7818H161.513L159.203 18.5468ZM163.986 30.4064H154.377L152.196 35.9595H144.465L156.337 9.02536H161.877L174.009 35.9595H166.346L163.986 30.4064Z" fill="#0394A8"/>
  <path d="M192.742 29.6612H203.812V35.9778H185.77V9.08165H192.742V29.6612Z" fill="#0394A8"/>
  <path d="M86.0623 15.9527H87.0686V15.6697H86.0623V15.9527Z" fill="#0394A8"/>
  <path d="M86.0623 16.4634H87.6344V16.1805H86.0623V16.4634Z" fill="#0394A8"/>
  <path d="M86.0623 16.9741H87.0686V16.6919H86.0623V16.9741Z" fill="#0394A8"/>
  <path d="M86.0623 17.4849H87.0686V17.2019H86.0623V17.4849Z" fill="#0394A8"/>
  <path d="M86.0623 17.9956H87.6344V17.7134H86.0623V17.9956Z" fill="#0394A8"/>
  <path d="M86.0623 18.5057H87.0686V18.2234H86.0623V18.5057Z" fill="#0394A8"/>
  <path d="M86.0623 19.0164H87.0686V18.7342H86.0623V19.0164Z" fill="#0394A8"/>
  <path d="M86.0623 19.5271H87.6344V19.2449H86.0623V19.5271Z" fill="#0394A8"/>
  <path d="M86.0623 20.0379H87.0686V19.7557H86.0623V20.0379Z" fill="#0394A8"/>
  <path d="M86.0623 20.5486H87.0686V20.2664H86.0623V20.5486Z" fill="#0394A8"/>
  <path d="M86.0623 21.0594H87.6344V20.7771H86.0623V21.0594Z" fill="#0394A8"/>
  <path d="M86.0623 21.5701H87.0686V21.2872H86.0623V21.5701Z" fill="#0394A8"/>
  <path d="M100.854 35.8553H93.298L86.2546 26.1547H84.6091C84.6853 26.101 84.7794 26.0695 84.8806 26.0695H85.4058C85.4928 26.0695 85.5726 26.0695 85.6489 26.0659C85.708 26.0695 85.7672 26.0695 85.8334 26.063L85.8612 26.0602C86.4556 25.9971 86.9181 25.5709 86.9915 25.0444C87.2631 24.9119 87.4469 24.6562 87.4469 24.356C87.4469 24.0659 87.2695 23.8109 87.0051 23.6777V23.0788C87.2452 23.0437 87.4405 22.8732 87.4854 22.659C90.3475 22.6311 92.2603 21.0659 92.2603 18.4155C92.2603 16.154 90.8728 14.6834 88.6927 14.2801C88.5152 14.2479 88.3342 14.2228 88.1496 14.2042C87.9095 14.1791 87.6629 14.1662 87.4092 14.1662H86.8355C86.6437 14.1662 86.4699 14.1755 86.3031 14.1913C84.8036 14.3274 84.3625 15.0874 84.3625 16.4506V22.659H85.666C85.7151 22.8768 85.9061 23.0437 86.1499 23.0788V23.6934H86.1463C85.8997 23.8295 85.7358 24.0759 85.7358 24.356C85.7358 24.5265 85.795 24.6841 85.8997 24.8138C85.9617 24.8926 86.0387 24.9556 86.1292 25.0093C86.0772 25.1547 85.9446 25.2615 85.7779 25.2873L85.6382 25.2901H84.9882L84.9747 25.293C84.912 25.2994 84.8492 25.2994 84.7901 25.2966H84.7516C84.6611 25.3059 84.5742 25.3216 84.4908 25.3438C84.1294 25.4477 83.8301 25.6877 83.684 26.0158L83.632 26.1454L83.6284 26.1547L83.6249 26.1798C83.6042 26.2521 83.5899 26.3281 83.5864 26.404V26.4699C83.5864 26.5802 83.58 34.7615 83.5764 34.8847C83.5764 35.9155 83.5728 35.8969 83.5728 35.8969H77.2992V21.9713L77.2714 16.8159V9.08309H88.9877C94.6464 9.08309 98.5205 13.6619 98.5205 18.4155C98.5205 21.9685 96.3575 24.533 92.9003 25.6024L100.854 35.8553Z" fill="#0394A8"/>
  <path d="M81.1177 58.7729H77.0926V43.2485H81.1177V58.7729Z" fill="#0394A8"/>
  <path d="M103.979 43.2488V59.0554H102.692L94.3141 50.8935V58.7731H90.2889V42.9658H91.5767L99.9542 51.011V43.2488H103.979Z" fill="#0394A8"/>
  <path d="M123.635 46.8948H117.176V49.8583H122.418V53.5044H117.176V58.7731H113.15V43.2487H123.635V46.8948Z" fill="#0394A8"/>
  <path d="M145.49 52.1868C145.49 54.2413 144.847 55.8996 143.56 57.1618C142.272 58.4239 140.638 59.0557 138.656 59.0557C136.659 59.0557 135.022 58.4239 133.742 57.1618C132.463 55.8996 131.823 54.2413 131.823 52.1868V43.2484H135.848V52.4927C135.848 53.3709 136.11 54.065 136.632 54.5744C137.155 55.0844 137.83 55.3387 138.656 55.3387C139.483 55.3387 140.159 55.0844 140.681 54.5744C141.203 54.065 141.465 53.3709 141.465 52.4927V43.2484H145.49V52.1868Z" fill="#0394A8"/>
  <path d="M164.817 46.0945L162.126 48.1647C161.751 47.6003 161.369 47.1841 160.98 46.9176C160.589 46.6511 160.122 46.5186 159.576 46.5186C158.656 46.5186 158.195 46.8474 158.195 47.5064C158.195 47.7879 158.292 48.02 158.487 48.1998C158.683 48.3804 159.03 48.5723 159.529 48.7765L161.307 49.5294C162.649 50.0938 163.644 50.74 164.291 51.4699C164.939 52.1984 165.262 53.1124 165.262 54.2099C165.262 55.6998 164.728 56.8796 163.659 57.75C162.59 58.6203 161.237 59.0559 159.599 59.0559C158.21 59.0559 156.978 58.7414 155.901 58.1146C154.825 57.4871 154.005 56.6411 153.444 55.5738L156.159 53.5043C157.141 54.8374 158.289 55.5036 159.599 55.5036C160.66 55.5036 161.19 55.1268 161.19 54.3746C161.19 54.0294 161.081 53.7708 160.862 53.5988C160.645 53.4255 160.231 53.2063 159.622 52.9398L158.031 52.2335C155.425 51.0895 154.122 49.5294 154.122 47.553C154.122 46.1726 154.625 45.0637 155.632 44.2249C156.638 43.3861 157.937 42.9663 159.529 42.9663C162.009 42.9663 163.772 44.0093 164.817 46.0945Z" fill="#0394A8"/>
  <path d="M177.664 58.7729H173.639V43.2485H177.664V58.7729Z" fill="#0394A8"/>
  <path d="M218.145 43.2488V59.0554H216.858L208.479 50.8935V58.7731H204.454V42.9658H205.742L214.12 51.011V43.2488H218.145Z" fill="#0394A8"/>
  <path d="M236.555 46.0945L233.864 48.1647C233.489 47.6003 233.107 47.1841 232.718 46.9176C232.327 46.6511 231.859 46.5186 231.314 46.5186C230.394 46.5186 229.932 46.8474 229.932 47.5064C229.932 47.7879 230.03 48.02 230.225 48.1998C230.421 48.3804 230.768 48.5723 231.267 48.7765L233.045 49.5294C234.387 50.0938 235.382 50.74 236.029 51.4699C236.676 52.1984 237 53.1124 237 54.2099C237 55.6998 236.465 56.8796 235.397 57.75C234.328 58.6203 232.976 59.0559 231.337 59.0559C229.948 59.0559 228.716 58.7414 227.639 58.1146C226.563 57.4871 225.743 56.6411 225.182 55.5738L227.897 53.5043C228.879 54.8374 230.026 55.5036 231.337 55.5036C232.398 55.5036 232.928 55.1268 232.928 54.3746C232.928 54.0294 232.819 53.7708 232.601 53.5988C232.383 53.4255 231.969 53.2063 231.36 52.9398L229.769 52.2335C227.163 51.0895 225.861 49.5294 225.861 47.553C225.861 46.1726 226.363 45.0637 227.37 44.2249C228.376 43.3861 229.675 42.9663 231.267 42.9663C233.747 42.9663 235.51 44.0093 236.555 46.0945Z" fill="#0394A8"/>
  <path d="M191.77 56.636C189.446 56.651 187.558 54.7592 187.543 52.4239C187.521 49.5586 191.363 46.285 191.705 44.9526C192.048 46.2928 195.939 49.7241 195.952 52.3738C195.967 54.7162 194.093 56.6288 191.77 56.636ZM191.676 40.4612C191.121 42.6245 184.885 47.9332 184.921 52.5894C184.942 56.3852 188.013 59.4511 191.784 59.4225C195.56 59.4082 198.596 56.3064 198.576 52.5027C198.547 48.2047 192.226 42.6317 191.676 40.4612Z" fill="#72ACBF"/>
</svg>